<?xml version="1.0" encoding="utf-8"?>
<!-- Generator: Adobe Illustrator 17.0.0, SVG Export Plug-In . SVG Version: 6.00 Build 0)  -->
<!DOCTYPE svg PUBLIC "-//W3C//DTD SVG 1.1//EN" "http://www.w3.org/Graphics/SVG/1.1/DTD/svg11.dtd">
<svg version="1.1" id="Layer_1" xmlns="http://www.w3.org/2000/svg" xmlns:xlink="http://www.w3.org/1999/xlink" x="0px" y="0px"
	 width="283.46px" height="283.46px" viewBox="0 0 283.46 283.46" enable-background="new 0 0 283.46 283.46" xml:space="preserve">
<g>
	<path d="M142.315,16.707c-0.04,0.314-0.115,0.627-0.115,0.941c-0.006,8.399-0.005,16.799-0.002,25.198
		c0,0.275,0.035,0.549,0.057,0.86c7.272,0.853,11.273,6.04,15.041,11.421c3.915,5.592,6.153,11.987,8.295,18.397
		c2.371,7.095,4.141,14.346,5.408,21.719c0.462,2.687,0.468,2.705,3.068,1.906c8.588-2.642,17.151-5.376,25.985-7.123
		c7.426-1.469,14.897-2.532,22.495-2.226c3.561,0.144,7.088,0.574,10.452,1.874c6.169,2.383,8.641,7.107,7.121,13.555
		c-0.762,3.234-2.201,6.154-3.996,8.919c-0.544,0.838-1.184,1.631-1.601,2.527c-0.232,0.499-0.315,1.276-0.088,1.747
		c1.628,3.39,1.324,6.543-1.12,9.376c-2.364,2.74-6.104,3.538-9.658,2.326c-0.464-0.158-1.224-0.097-1.584,0.19
		c-6.216,4.964-12.391,9.977-18.572,14.985c-0.464,0.376-0.898,0.788-1.452,1.277c2.102,1.629,4.139,3.202,6.171,4.783
		c7.968,6.198,15.59,12.77,22.106,20.53c3.457,4.117,6.678,8.407,8.537,13.51c0.66,1.812,1.092,3.781,1.208,5.704
		c0.285,4.72-1.998,8.033-6.224,9.983c-4.394,2.028-9.1,2.316-13.846,2.196c-10.794-0.273-21.226-2.622-31.526-5.637
		c-5.133-1.503-10.214-3.183-15.32-4.78c-0.486-0.152-0.98-0.283-1.637-0.471c-0.468,2.292-0.93,4.463-1.352,6.642
		c-2.119,10.931-4.862,21.678-9.907,31.678c-1.414,2.803-3.123,5.496-4.986,8.025c-3.718,5.048-6.557,6.744-13.076,8.32
		c0,0.428,0,0.896,0,1.363c0,7.599,0,15.199,0,22.798c0,0.32,0.054,0.656-0.027,0.954c-0.057,0.207-0.303,0.362-0.464,0.54
		c-0.126-0.166-0.329-0.319-0.36-0.501c-0.059-0.35-0.023-0.717-0.023-1.077c0-19.997,0-39.994,0-59.991c0-0.515,0-1.029,0-1.564
		c-1.462-0.276-2.865-0.416-4.191-0.81c-10.565-3.139-18.38-9.48-22.477-19.878c-0.814-2.067-1.021-4.428-1.21-6.679
		c-0.7-8.356-2.939-16.315-6.708-23.733c-4.841-9.527-7.98-19.575-10.245-29.945c-3.12-14.28-6.202-28.569-9.26-42.862
		c-0.609-2.845-1.039-5.728-1.455-8.636c1.801,2.835,3.798,5.551,4.739,8.845c4.302,15.05,8.578,30.107,12.931,45.142
		c2.025,6.994,4.86,13.686,7.836,20.322c1.077,2.402,1.996,4.875,2.979,7.32c1.865,4.64,4.886,8.036,9.96,9.172
		c5.756,1.289,13.081-2.663,15.206-8.17c1.716-4.448-0.11-9.197-4.773-12.069c-3.258-2.007-6.141-4.442-8.893-7.077
		c-0.939-0.9-1.304-1.859-1.157-3.089c0.099-0.83,0.197-1.661,0.315-2.653c5.294,1.687,10.615,2.781,16.276,1.632
		c0-28.414,0-57.138,0-85.942c-1.855,0.077-3.523,0.73-5.022,1.834c-3.19,2.35-5.429,5.501-7.371,8.885
		c-4.11,7.16-6.444,14.981-8.605,22.884c-0.619,2.263-0.555,3.694,1.507,5.412c4.929,4.108,4.973,9.641,3.497,15.388
		c-1.092,0.062-1.554-0.296-1.607-1.42c-0.118-2.527-1.478-4.158-3.965-4.772c-1.429-0.353-2.907-0.549-4.376-0.684
		c-3.439-0.315-6.176-1.894-8.215-4.604c-1.625-2.159-3.072-4.451-4.625-6.724c2.928-0.992,8.879-1.366,12.539-0.801
		c0.318-1.191,0.638-2.407,0.966-3.621c2.316-8.591,5.194-16.969,9.908-24.579c1.381-2.229,3.038-4.318,4.78-6.285
		c2.788-3.149,6.253-5.196,10.75-5.608c0-9.034,0-18.053,0-27.072C141.675,16.707,141.995,16.707,142.315,16.707z M220.535,197.703
		c1.433-0.088,3.152-0.138,4.858-0.31c2.57-0.26,5.003-0.993,7.18-2.43c2.185-1.442,3.314-3.455,3.399-6.109
		c0.109-3.422-1.14-6.398-2.838-9.241c-2.684-4.493-6.18-8.331-9.824-12.043c-7.37-7.507-15.812-13.692-24.381-19.717
		c-0.818-0.575-1.618-0.475-2.45,0.051c-6.981,4.421-13.979,8.816-20.946,13.259c-0.391,0.249-0.753,0.828-0.8,1.288
		c-0.772,7.46-1.467,14.928-2.251,22.386c-0.099,0.945,0.099,1.335,0.987,1.656c8.393,3.042,16.848,5.885,25.534,7.98
		C205.988,196.159,213.031,197.522,220.535,197.703z M219.995,91.335c-6.291,0.055-12.474,0.993-18.611,2.304
		c-9.02,1.926-17.774,4.768-26.503,7.693c-2.662,0.892-2.581,0.886-2.292,3.714c0.68,6.668,1.296,13.342,1.889,20.018
		c0.129,1.457,0.63,2.469,1.95,3.298c6.492,4.075,12.943,8.218,19.338,12.443c1.186,0.784,1.955,0.752,3.069-0.022
		c6.966-4.84,13.633-10.05,19.944-15.72c0.522-0.469,0.583-0.797,0.309-1.404c-1.086-2.408-1.03-4.804,0.275-7.124
		c1.987-3.533,5.836-5.043,9.983-4.001c0.411,0.103,1.116,0.041,1.33-0.227c2.097-2.633,3.94-5.42,4.853-8.724
		c1.539-5.571-0.429-9.266-5.951-11.04C226.465,91.543,223.248,91.29,219.995,91.335z M142.249,109.939
		c0.572-0.224,0.973-0.375,1.37-0.537c7.192-2.938,14.38-5.888,21.579-8.809c1.825-0.741,2.103-1.125,1.783-3.057
		c-1.258-7.589-2.761-15.126-5.009-22.493c-2.03-6.652-4.416-13.16-8.387-18.951c-1.94-2.829-4.241-5.311-7.404-6.82
		c-1.217-0.581-2.491-0.988-3.931-0.814C142.249,68.944,142.249,89.315,142.249,109.939z M142.23,173.121
		c0.198-0.016,0.281-0.003,0.346-0.032c9.092-4.035,17.933-8.563,26.487-13.641c0.48-0.285,0.909-1.014,0.971-1.58
		c0.196-1.783,0.277-3.586,0.274-5.382c-0.01-6.833-0.106-13.667-0.082-20.5c0.005-1.485-0.589-2.349-1.797-3.086
		c-8.088-4.94-16.605-9.049-25.164-13.079c-0.274-0.129-0.586-0.177-0.986-0.294c0,6.181,0,12.234,0,18.295
		c0.902,0.176,1.733,0.295,2.541,0.502c4.538,1.162,8.163,5.08,8.53,9.188c0.49,5.483-3.066,9.891-8.893,10.903
		c-0.893,0.155-1.081,0.487-1.076,1.305c0.031,4.919,0.015,9.839,0.015,14.758c0,0.426,0,0.853,0,1.283
		c-0.479,0.055-0.811,0.092-1.168,0.133C142.23,172.332,142.23,172.685,142.23,173.121z M142.194,178.245c0,0.687,0,1.115,0,1.542
		c0,5.399-0.02,10.798,0.02,16.197c0.007,0.905-0.481,2.029,0.766,2.622c0.099,0.047,0.09,0.371,0.091,0.566
		c0.006,2.519,0.008,5.039-0.002,7.558c-0.001,0.226-0.055,0.635-0.141,0.651c-1.128,0.208-0.717,1.09-0.718,1.704
		c-0.022,9.958-0.016,19.916-0.016,29.874c0,0.462,0,0.924,0,1.474c2.213-0.244,4.044-0.974,5.705-2.128
		c2.471-1.717,4.34-3.999,5.952-6.501c4.153-6.448,6.568-13.619,8.626-20.931c1.871-6.648,3.134-13.42,4.121-20.251
		c0.295-2.044,0.396-1.741-1.517-2.537c-4.969-2.068-9.96-4.085-14.914-6.189C147.568,180.793,145.028,179.549,142.194,178.245z
		 M141.319,197.883c0-4.426,0-8.621,0-12.816c0-4.196,0.016-8.393-0.035-12.589c-0.004-0.309-0.473-0.853-0.765-0.881
		c-3.376-0.329-6.761-0.82-10.141-0.801c-7.751,0.043-14.123,6.415-14.458,14.169c-0.114,2.627,1.029,4.418,3.537,5.319
		c4.957,1.781,9.931,3.517,14.904,5.253C136.616,196.323,138.884,197.064,141.319,197.883z M193.547,144.533
		c-0.006-0.217-0.012-0.434-0.019-0.651c-5.869-3.782-11.738-7.564-17.607-11.346c-0.15,0.097-0.299,0.194-0.449,0.291
		c0,7.64,0,15.28,0,23.193C181.6,152.126,187.574,148.329,193.547,144.533z M147.322,176.248c0.661,0.327,1.219,0.633,1.8,0.886
		c2.811,1.227,5.614,2.477,8.448,3.65c2.868,1.187,5.778,2.274,8.652,3.448c0.979,0.4,1.427,0.082,1.579-0.888
		c0.043-0.275,0.145-0.541,0.177-0.817c0.536-4.673,1.092-9.345,1.576-14.023c0.126-1.221,0.019-2.466,0.019-3.655
		C162.045,168.705,154.756,172.44,147.322,176.248z M167.634,103.924c-6.766,2.977-13.261,5.834-19.784,8.704
		c7.35,3.871,14.491,7.631,21.811,11.486C169.66,117.377,168.783,110.783,167.634,103.924z M118.079,86.424
		c-0.018-0.14-0.035-0.28-0.053-0.42c-1.086-0.136-2.179-0.428-3.255-0.376c-2.182,0.105-3.62,1.491-4.416,3.365
		c-0.583,1.373,0.694,2.303,1.415,3.301c0.253,0.349,0.584,0.661,0.932,0.919c1.587,1.176,3.363,1.558,5.174,0.734
		c1.777-0.809,2.095-2.535,2.303-4.427c-2.18,0-4.268,0-6.355,0c-0.023-0.081-0.046-0.162-0.07-0.243
		C115.196,88.326,116.637,87.375,118.079,86.424z"/>
	<path d="M103.259,202.626c-6.752-5.414-13.849-9.976-19.72-16.023c-6.271-6.458-8.289-14.409-7.575-23.166
		c0.584-7.164,2.625-14.042,4.435-20.954c1.8-6.874,3.721-13.717,5.592-20.572c0.041-0.151,0.12-0.293,0.257-0.621
		c1.224,2.214,1.893,4.456,2.321,6.784c0.837,4.546,0.407,9.08-0.138,13.611c-0.993,8.253-1.812,16.513-2.075,24.834
		c-0.206,6.524,2.054,12.029,6.107,16.947c1.982,2.405,4.069,4.726,5.978,7.187c2.357,3.04,3.911,6.485,4.64,10.281
		c0.053,0.274,0.099,0.55,0.133,0.828C103.237,201.956,103.235,202.155,103.259,202.626z"/>
	<path d="M65.144,169.467c-1.73-5.85-3.596-11.664-5.133-17.564c-0.758-2.91-1.2-5.969-1.284-8.975
		c-0.228-8.192,2.459-15.617,7.109-22.215c4.899-6.951,10.202-13.619,15.332-20.407c0.449-0.594,0.922-1.169,1.51-1.913
		c0.998,3.521,0.905,6.806-0.01,10.09c-0.803,2.881-2.226,5.457-3.879,7.926c-3.004,4.485-5.738,9.116-7.798,14.13
		c-2.619,6.375-3.472,12.986-2.996,19.832c0.279,4.016,0.765,8.073-0.134,12.053c-0.547,2.422-1.511,4.749-2.288,7.119
		C65.43,169.517,65.287,169.492,65.144,169.467z"/>
	<path d="M55.151,120.848c-4.699-2.753-7.298-8.026-4.578-13.233c1.348-2.58,3.189-4.998,5.199-7.118
		c7.174-7.566,14.515-14.973,21.795-22.438c0.137-0.141,0.293-0.262,0.429-0.382c2.274,1.133,3.322,3.641,2.485,6.327
		c-0.361,1.157-0.912,2.346-1.68,3.267c-2.684,3.217-5.517,6.31-8.265,9.475c-3.587,4.133-7.126,8.307-10.723,12.43
		c-2.525,2.895-3.997,6.215-4.344,10.042C55.421,119.732,55.273,120.235,55.151,120.848z"/>
	<path d="M55.137,87.162c-0.888-4.181-0.728-8.185,1.701-11.679c1.505-2.165,3.402-4.147,5.434-5.837
		c3.064-2.549,6.399-4.77,9.729-7.211c0.921,1.544,1.134,3.208,1.046,4.914c-0.168,3.252-1.615,5.919-4.028,8.027
		c-4.425,3.865-8.907,7.664-13.368,11.486C55.538,86.959,55.391,87.016,55.137,87.162z"/>
</g>
</svg>
